<svg xmlns="http://www.w3.org/2000/svg" viewBox="0 0 2400 680" width="2400" height="680">
  <defs>
    <!-- Background Gradients (Atmospheric Forest / Outside Night) -->
    <linearGradient id="bgSkyOutside" x1="0%" y1="0%" x2="0%" y2="100%">
      <stop offset="0%" stop-color="#0a0402"/>
      <stop offset="45%" stop-color="#1f0a05"/>
      <stop offset="80%" stop-color="#3a1208"/>
      <stop offset="100%" stop-color="#170603"/>
    </linearGradient>

    <!-- Windshield Tint & Reflection Gradients -->
    <linearGradient id="windshieldTint" x1="0%" y1="0%" x2="100%" y2="100%">
      <stop offset="0%" stop-color="#3a1006" stop-opacity="0.35"/>
      <stop offset="50%" stop-color="#200a05" stop-opacity="0.18"/>
      <stop offset="100%" stop-color="#120502" stop-opacity="0.45"/>
    </linearGradient>

    <linearGradient id="windshieldReflection" x1="25%" y1="0%" x2="75%" y2="100%">
      <stop offset="0%" stop-color="#ffffff" stop-opacity="0.07"/>
      <stop offset="30%" stop-color="#ffffff" stop-opacity="0.02"/>
      <stop offset="60%" stop-color="#ffffff" stop-opacity="0"/>
      <stop offset="100%" stop-color="#ffffff" stop-opacity="0"/>
    </linearGradient>

    <!-- Mist Bands in Background -->
    <linearGradient id="mistGrad" x1="0%" y1="0%" x2="100%" y2="0%">
      <stop offset="0%" stop-color="#f97316" stop-opacity="0"/>
      <stop offset="25%" stop-color="#f97316" stop-opacity="0.14"/>
      <stop offset="50%" stop-color="#fb923c" stop-opacity="0.18"/>
      <stop offset="75%" stop-color="#f97316" stop-opacity="0.12"/>
      <stop offset="100%" stop-color="#f97316" stop-opacity="0"/>
    </linearGradient>

    <!-- Cockpit Dashboard & Interior Gradients -->
    <linearGradient id="dashTopGrad" x1="0%" y1="0%" x2="0%" y2="100%">
      <stop offset="0%" stop-color="#334155"/>
      <stop offset="12%" stop-color="#1e293b"/>
      <stop offset="55%" stop-color="#0f172a"/>
      <stop offset="100%" stop-color="#020617"/>
    </linearGradient>

    <linearGradient id="ambientLedGrad" x1="0%" y1="0%" x2="100%" y2="0%">
      <stop offset="0%" stop-color="#059669"/>
      <stop offset="25%" stop-color="#10b981"/>
      <stop offset="50%" stop-color="#34d399"/>
      <stop offset="75%" stop-color="#10b981"/>
      <stop offset="100%" stop-color="#047857"/>
    </linearGradient>

    <!-- Steering Wheel Gradients -->
    <linearGradient id="steeringWheelRim" x1="0%" y1="0%" x2="100%" y2="100%">
      <stop offset="0%" stop-color="#475569"/>
      <stop offset="20%" stop-color="#1e293b"/>
      <stop offset="50%" stop-color="#0f172a"/>
      <stop offset="80%" stop-color="#1e293b"/>
      <stop offset="100%" stop-color="#090d16"/>
    </linearGradient>

    <linearGradient id="steeringSpokeGrad" x1="0%" y1="0%" x2="0%" y2="100%">
      <stop offset="0%" stop-color="#475569"/>
      <stop offset="40%" stop-color="#1e293b"/>
      <stop offset="100%" stop-color="#0f172a"/>
    </linearGradient>

    <!-- Pedestal / Mounting Bracket Gradients -->
    <linearGradient id="pedestalMountGrad" x1="0%" y1="0%" x2="100%" y2="0%">
      <stop offset="0%" stop-color="#1e293b"/>
      <stop offset="20%" stop-color="#475569"/>
      <stop offset="50%" stop-color="#64748b"/>
      <stop offset="80%" stop-color="#334155"/>
      <stop offset="100%" stop-color="#1e293b"/>
    </linearGradient>

    <linearGradient id="pedestalArmGrad" x1="0%" y1="0%" x2="0%" y2="100%">
      <stop offset="0%" stop-color="#475569"/>
      <stop offset="35%" stop-color="#334155"/>
      <stop offset="75%" stop-color="#1e293b"/>
      <stop offset="100%" stop-color="#0f172a"/>
    </linearGradient>

    <linearGradient id="hingeCylinderGrad" x1="0%" y1="0%" x2="0%" y2="100%">
      <stop offset="0%" stop-color="#64748b"/>
      <stop offset="30%" stop-color="#94a3b8"/>
      <stop offset="70%" stop-color="#475569"/>
      <stop offset="100%" stop-color="#1e293b"/>
    </linearGradient>

    <!-- Navigation Bezel & Screen Gradients -->
    <linearGradient id="naviBezelGrad" x1="0%" y1="0%" x2="100%" y2="100%">
      <stop offset="0%" stop-color="#2563eb"/>
      <stop offset="25%" stop-color="#1e40af"/>
      <stop offset="75%" stop-color="#1e3a8a"/>
      <stop offset="100%" stop-color="#020617"/>
    </linearGradient>

    <linearGradient id="screenMapGrad" x1="0%" y1="0%" x2="100%" y2="100%">
      <stop offset="0%" stop-color="#020c1f"/>
      <stop offset="40%" stop-color="#08234a"/>
      <stop offset="80%" stop-color="#0e3566"/>
      <stop offset="100%" stop-color="#02091c"/>
    </linearGradient>

    <!-- Accent Gradients -->
    <linearGradient id="goldAccent" x1="0%" y1="0%" x2="100%" y2="0%">
      <stop offset="0%" stop-color="#f59e0b"/>
      <stop offset="35%" stop-color="#fbbf24"/>
      <stop offset="70%" stop-color="#34d399"/>
      <stop offset="100%" stop-color="#10b981"/>
    </linearGradient>

    <linearGradient id="routeGrad" x1="0%" y1="100%" x2="100%" y2="0%">
      <stop offset="0%" stop-color="#34d399"/>
      <stop offset="40%" stop-color="#10b981"/>
      <stop offset="80%" stop-color="#059669"/>
      <stop offset="100%" stop-color="#fbbf24"/>
    </linearGradient>

    <linearGradient id="coinGold" x1="0%" y1="0%" x2="100%" y2="100%">
      <stop offset="0%" stop-color="#fef3c7"/>
      <stop offset="30%" stop-color="#fbbf24"/>
      <stop offset="70%" stop-color="#d97706"/>
      <stop offset="100%" stop-color="#92400e"/>
    </linearGradient>

    <linearGradient id="glassReflection" x1="0%" y1="0%" x2="100%" y2="100%">
      <stop offset="0%" stop-color="#ffffff" stop-opacity="0.12"/>
      <stop offset="35%" stop-color="#ffffff" stop-opacity="0.04"/>
      <stop offset="50%" stop-color="#ffffff" stop-opacity="0"/>
      <stop offset="100%" stop-color="#ffffff" stop-opacity="0"/>
    </linearGradient>

    <!-- Filters -->
    <filter id="softShadow" x="-10%" y="-10%" width="125%" height="125%">
      <feDropShadow dx="0" dy="18" stdDeviation="22" flood-color="#000000" flood-opacity="0.8"/>
    </filter>

    <filter id="pedestalShadow" x="-20%" y="-20%" width="140%" height="140%">
      <feDropShadow dx="0" dy="14" stdDeviation="16" flood-color="#000000" flood-opacity="0.9"/>
    </filter>

    <filter id="glowGreen" x="-20%" y="-20%" width="140%" height="140%">
      <feGaussianBlur stdDeviation="8" result="blur"/>
      <feMerge>
        <feMergeNode in="blur"/>
        <feMergeNode in="SourceGraphic"/>
      </feMerge>
    </filter>

    <filter id="laserGlow" x="-30%" y="-30%" width="160%" height="160%">
      <feGaussianBlur stdDeviation="14" result="blur"/>
      <feMerge>
        <feMergeNode in="blur"/>
        <feMergeNode in="SourceGraphic"/>
      </feMerge>
    </filter>

    <filter id="cardShadow" x="-15%" y="-15%" width="130%" height="130%">
      <feDropShadow dx="0" dy="6" stdDeviation="8" flood-color="#000000" flood-opacity="0.6"/>
    </filter>

    <filter id="paperShadow" x="-15%" y="-15%" width="135%" height="135%">
      <feDropShadow dx="3" dy="8" stdDeviation="6" flood-color="#000000" flood-opacity="0.55"/>
    </filter>

    <filter id="blurFarMist" x="-20%" y="-20%" width="140%" height="140%">
      <feGaussianBlur stdDeviation="12"/>
    </filter>

    <filter id="blurMist" x="-20%" y="-20%" width="140%" height="140%">
      <feGaussianBlur stdDeviation="6"/>
    </filter>

    <!-- Reusable Paragraph (§) Symbol (Authentic German Section Mark) -->
    <g id="par-symbol">
      <path d="M 15.0 29.4 Q 11.4 26.2 9.9 23.4 Q 8.3 20.6 8.3 17.5 Q 8.3 12.2 12.8 8.1 Q 17.3 4.0 24.4 4.0 Q 31.0 4.0 35.0 7.3 Q 39.1 10.7 39.1 14.6 Q 39.1 16.9 37.7 18.4 Q 36.2 19.9 34.1 19.9 Q 31.9 19.9 30.6 18.6 Q 29.2 17.2 29.2 15.3 Q 29.2 14.5 29.5 13.2 Q 29.7 11.9 29.7 11.1 Q 29.7 9.3 28.4 8.1 Q 27.0 6.9 24.3 6.9 Q 21.0 6.9 18.8 9.0 Q 16.6 11.0 16.6 13.4 Q 16.6 16.2 18.4 18.6 Q 20.1 20.9 26.6 25.0 Q 42.4 34.8 42.4 44.6 Q 42.4 48.5 40.3 51.7 Q 38.2 55.0 33.0 58.6 Q 36.8 62.3 38.2 65.0 Q 39.6 67.7 39.6 70.9 Q 39.6 74.5 37.7 77.5 Q 35.8 80.5 32.1 82.3 Q 28.4 84.0 23.5 84.0 Q 16.6 84.0 12.9 80.8 Q 9.2 77.6 9.2 73.5 Q 9.2 71.2 10.7 69.7 Q 12.1 68.1 14.3 68.1 Q 16.4 68.1 17.9 69.5 Q 19.3 70.9 19.3 72.6 Q 19.3 73.6 18.7 75.2 Q 18.2 76.7 18.2 77.7 Q 18.2 78.9 19.5 79.9 Q 20.8 80.9 23.6 80.9 Q 27.4 80.9 29.5 79.1 Q 31.7 77.2 31.7 74.6 Q 31.7 71.7 30.2 69.8 Q 28.2 67.2 21.9 63.4 Q 14.0 58.5 9.3 53.0 Q 5.6 48.5 5.6 44.4 Q 5.6 40.6 7.7 37.0 Q 9.8 33.5 15.0 29.4 Z M 17.4 31.3 Q 13.2 34.9 13.2 38.9 Q 13.2 41.0 14.5 43.2 Q 15.7 45.4 18.8 47.9 L 30.7 56.8 Q 33.1 54.7 34.0 52.8 Q 35.0 51.0 35.0 49.2 Q 35.0 47.1 34.0 45.3 Q 32.4 42.5 29.2 40.0 Q 27.6 38.8 17.4 31.3 Z" 
            fill-rule="evenodd"/>
    </g>

    <!-- Reusable Tax Document Sheet -->
    <g id="tax-form-sheet">
      <path d="M 0 0 L 65 0 L 85 20 L 85 110 L 0 110 Z" fill="#f8fafc"/>
      <path d="M 65 0 L 65 20 L 85 20 Z" fill="#cbd5e1"/>
      <line x1="12" y1="20" x2="52" y2="20" stroke="#94a3b8" stroke-width="3" stroke-linecap="round"/>
      <line x1="12" y1="36" x2="72" y2="36" stroke="#cbd5e1" stroke-width="2"/>
      <line x1="12" y1="48" x2="72" y2="48" stroke="#cbd5e1" stroke-width="2"/>
      <line x1="12" y1="60" x2="72" y2="60" stroke="#cbd5e1" stroke-width="2"/>
      <line x1="12" y1="72" x2="55" y2="72" stroke="#cbd5e1" stroke-width="2"/>
      <line x1="12" y1="88" x2="40" y2="88" stroke="#10b981" stroke-width="4" stroke-linecap="round"/>
      <rect x="52" y="82" width="22" height="12" rx="3" fill="#047857"/>
    </g>

    <!-- Reusable Receipt Strip with Zig-Zag Tear Edges -->
    <g id="receipt-tear">
      <path d="M 0 5 L 6 0 L 12 5 L 18 0 L 24 5 L 30 0 L 36 5 L 42 0 L 48 5 L 54 0 L 60 5 L 66 0 L 72 5 L 78 0 L 84 5 L 90 0 L 90 125 L 84 120 L 78 125 L 72 120 L 66 125 L 60 120 L 54 125 L 48 120 L 42 125 L 36 120 L 30 125 L 24 120 L 18 125 L 12 120 L 6 125 L 0 120 Z" 
            fill="#ffffff"/>
      <line x1="12" y1="20" x2="78" y2="20" stroke="#94a3b8" stroke-width="2.5" stroke-dasharray="3 3"/>
      <rect x="12" y="32" width="40" height="4" rx="2" fill="#cbd5e1"/>
      <rect x="62" y="32" width="16" height="4" rx="2" fill="#94a3b8"/>
      <rect x="12" y="44" width="48" height="4" rx="2" fill="#cbd5e1"/>
      <rect x="66" y="44" width="12" height="4" rx="2" fill="#94a3b8"/>
      <rect x="12" y="56" width="36" height="4" rx="2" fill="#cbd5e1"/>
      <rect x="60" y="56" width="18" height="4" rx="2" fill="#94a3b8"/>
      <line x1="12" y1="72" x2="78" y2="72" stroke="#64748b" stroke-width="1.5"/>
      <!-- Barcode simulation -->
      <g transform="translate(14, 82)" fill="#475569">
        <rect x="0" y="0" width="2" height="24"/>
        <rect x="5" y="0" width="3.5" height="24"/>
        <rect x="11" y="0" width="1.5" height="24"/>
        <rect x="15" y="0" width="3" height="24"/>
        <rect x="21" y="0" width="1" height="24"/>
        <rect x="25" y="0" width="4" height="24"/>
        <rect x="32" y="0" width="2" height="24"/>
        <rect x="36" y="0" width="1" height="24"/>
        <rect x="40" y="0" width="3" height="24"/>
        <rect x="46" y="0" width="2.5" height="24"/>
        <rect x="52" y="0" width="1.5" height="24"/>
        <rect x="56" y="0" width="4" height="24"/>
      </g>
    </g>

    <!-- Reusable Tropical Jungle Foliage Leaf -->
    <g id="jungle-frond">
      <path d="M 0 80 C 15 60 25 35 30 0 C 35 35 45 60 60 80 C 50 78 40 70 30 50 C 20 70 10 78 0 80 Z" fill="#059669"/>
      <path d="M 30 0 L 30 80" stroke="#34d399" stroke-width="2"/>
    </g>

    <!-- Reusable Golden Euro Coin (€) Waypoint -->
    <g id="waypoint-coin">
      <circle cx="0" cy="0" r="14" fill="url(#coinGold)" stroke="#78350f" stroke-width="1.5" filter="url(#cardShadow)"/>
      <circle cx="0" cy="0" r="11" fill="none" stroke="#fef3c7" stroke-width="1" stroke-dasharray="2 1.5"/>
      <!-- Embossed Euro sign (€) as vector path -->
      <path d="M 4 -6 C 1 -7 -2 -6 -4 -4 C -6 -1 -6 2 -4 5 C -2 7 1 7 4 6 M -6 -1 L 1 -1 M -6 2 L 0 2" 
            fill="none" stroke="#78350f" stroke-width="2" stroke-linecap="round"/>
    </g>
  </defs>

  <!-- ======================================================= -->
  <!-- 1. OUTSIDE WORLD (VIEW THROUGH THE WINDSHIELD)          -->
  <!-- ======================================================= -->
  <rect width="2400" height="680" fill="url(#bgSkyOutside)"/>

  <!-- Atmospheric Glow at Horizon -->
  <ellipse cx="1200" cy="380" rx="1300" ry="240" fill="#063e2a" opacity="0.35" filter="url(#blurFarMist)"/>

  <!-- Distant Foggy Silhouettes of the Tax Jungle (§ & Documents) -->
  <g id="outside-jungle-far" fill="#200a05" opacity="0.28" filter="url(#blurFarMist)">
    <!-- Giant § silhouettes rising like trees in the distance -->
    <use href="#par-symbol" x="120" y="50" transform="scale(2.2)"/>
    <use href="#par-symbol" x="380" y="80" transform="scale(1.8)"/>
    <use href="#par-symbol" x="720" y="40" transform="scale(2.5)"/>
    <use href="#par-symbol" x="1060" y="90" transform="scale(1.9)"/>
    <use href="#par-symbol" x="1420" y="50" transform="scale(2.4)"/>
    <use href="#par-symbol" x="1780" y="70" transform="scale(2.1)"/>
    <use href="#par-symbol" x="2120" y="40" transform="scale(2.3)"/>

    <!-- Distant document mountains / tax folder monoliths -->
    <polygon points="200,280 320,220 350,420 220,440"/>
    <polygon points="620,260 760,190 790,410 650,430"/>
    <polygon points="1280,240 1420,180 1460,400 1310,430"/>
    <polygon points="1900,270 2040,210 2080,410 1930,430"/>
  </g>

  <!-- Drifting Low Mist Bands -->
  <rect x="0" y="240" width="2400" height="90" fill="url(#mistGrad)" filter="url(#blurFarMist)"/>
  <rect x="0" y="340" width="2400" height="80" fill="url(#mistGrad)" filter="url(#blurMist)"/>

  <!-- Mid-Ground Silhouettes (Sharper dark § & receipt forms) -->
  <g id="outside-jungle-mid" fill="#2a0f08" opacity="0.38" filter="url(#blurMist)">
    <use href="#par-symbol" x="160" y="160" transform="scale(1.5)"/>
    <use href="#par-symbol" x="510" y="200" transform="scale(1.4)"/>
    <use href="#par-symbol" x="890" y="180" transform="scale(1.6)"/>
    <use href="#par-symbol" x="1260" y="190" transform="scale(1.5)"/>
    <use href="#par-symbol" x="1680" y="170" transform="scale(1.7)"/>
    <use href="#par-symbol" x="2040" y="190" transform="scale(1.4)"/>

    <!-- Stacked Form Silhouettes with serrated receipt tops -->
    <path d="M 320 280 L 345 270 L 370 280 L 395 270 L 405 440 L 330 450 Z"/>
    <path d="M 980 270 L 1005 260 L 1030 270 L 1055 260 L 1065 430 L 990 440 Z"/>
    <path d="M 1580 260 L 1605 250 L 1630 260 L 1655 250 L 1665 430 L 1590 440 Z"/>
  </g>

  <!-- Distant Illuminated Outside Road Trajectory vanishing into the mist -->
  <g id="outside-road" opacity="0.4">
    <polygon points="750,480 1160,350 1240,350 1650,480" fill="#170802"/>
    <line x1="1200" y1="480" x2="1200" y2="350" stroke="#f97316" stroke-width="4" stroke-dasharray="24 20" filter="url(#glowGreen)"/>
  </g>

  <!-- ======================================================= -->
  <!-- 2. WINDSHIELD GLASS LAYER & CABIN PILLARS               -->
  <!-- ======================================================= -->
  <!-- Subtle glass tint across the windshield area -->
  <rect width="2400" height="490" fill="url(#windshieldTint)"/>

  <!-- Angled Cockpit Windshield Reflection Glare -->
  <path d="M 220 0 L 860 0 L 600 460 L 0 460 Z" fill="url(#windshieldReflection)"/>
  <path d="M 1300 0 L 1800 0 L 1500 480 L 1050 480 Z" fill="url(#windshieldReflection)"/>

  <!-- Wiper sweep arc hint -->
  <path d="M 60 450 C 350 180, 800 110, 1380 130" fill="none" stroke="#ffffff" stroke-width="1.2" opacity="0.07"/>

  <!-- Left A-Pillar (A-Säule): Sleek structural automotive cabin frame -->
  <path d="M 0 0 L 85 0 L 25 455 L 0 465 Z" fill="#0a101d" stroke="#1e293b" stroke-width="2"/>
  <path d="M 85 0 L 25 455" stroke="#334155" stroke-width="2" opacity="0.8"/>

  <!-- Right Windshield Border Frame -->
  <path d="M 2340 0 L 2400 0 L 2400 490 L 2385 490 Z" fill="#0a101d" stroke="#1e293b" stroke-width="2"/>

  <!-- Top Roofliner / Sun-Visor Header (Dachhimmel) -->
  <path d="M 0 0 L 2400 0 L 2400 24 Q 1200 34 0 24 Z" fill="#090e17" stroke="#1e293b" stroke-width="1.5"/>

  <!-- Compact Rearview Mirror Base at top center -->
  <g transform="translate(1150, 15)">
    <rect x="-6" y="0" width="12" height="36" rx="3" fill="#1e293b" stroke="#334155" stroke-width="1"/>
    <rect x="-70" y="32" width="140" height="42" rx="10" fill="#0f172a" stroke="#334155" stroke-width="2" filter="url(#cardShadow)"/>
    <rect x="-65" y="36" width="130" height="34" rx="8" fill="#02140d" stroke="#10b981" stroke-width="1" opacity="0.8"/>
  </g>

  <!-- Small dezent disclaimer note, top-right corner of driver's windshield -->
  <text id="windshield-disclaimer-note" x="2320" y="45" text-anchor="end"
        font-family="system-ui, -apple-system, 'Segoe UI', Roboto, Helvetica, Arial, sans-serif"
        font-size="26" font-weight="400" fill="#f1f5f9" stroke="#150502" stroke-width="3"
        stroke-linejoin="round" paint-order="stroke fill" letter-spacing="-0.2" opacity="0.85">keine Steuerberatung</text>

  <!-- ======================================================= -->
  <!-- 2b. WINDSHIELD SILHOUETTE: OUTSIDE PARAGRAPH JUNGLE     -->
  <!-- Subtle distant § symbols & form stack silhouettes in    -->
  <!-- upper windshield (x=0..1300, y=0..220, behind wordmark) -->
  <!-- ======================================================= -->
  <g id="windshield-tax-jungle-silhouette">
    <!-- Formular- & Dokumentkanten-Silhouetten (Distant tax paper / stack edges) -->
    <g id="windshield-form-silhouettes">
      <!-- Angled document sheet silhouette with dog-ear corner -->
      <g transform="translate(385, 60) rotate(14)" opacity="0.25">
        <polygon points="0,0 46,0 60,14 60,78 0,78" fill="#3a1208"/>
        <polygon points="46,0 46,14 60,14" fill="#230a05"/>
        <line x1="8" y1="20" x2="40" y2="20" stroke="#4a1a0d" stroke-width="2"/>
        <line x1="8" y1="30" x2="50" y2="30" stroke="#4a1a0d" stroke-width="1.5"/>
        <line x1="8" y1="40" x2="50" y2="40" stroke="#4a1a0d" stroke-width="1.5"/>
        <line x1="8" y1="50" x2="34" y2="50" stroke="#4a1a0d" stroke-width="1.5"/>
      </g>
      <!-- Folded receipt strip silhouette with serrated tear bottom -->
      <g transform="translate(860, 68) rotate(-16)" opacity="0.28">
        <path d="M 0 0 L 38 0 L 38 68 L 32 64 L 26 68 L 20 64 L 14 68 L 8 64 L 0 68 Z" fill="#3d1509"/>
        <line x1="6" y1="12" x2="32" y2="12" stroke="#55200f" stroke-width="1.5" stroke-dasharray="2 2"/>
        <line x1="6" y1="22" x2="28" y2="22" stroke="#55200f" stroke-width="1.5"/>
        <line x1="6" y1="32" x2="24" y2="32" stroke="#55200f" stroke-width="1.5"/>
        <line x1="6" y1="42" x2="30" y2="42" stroke="#55200f" stroke-width="1.5"/>
      </g>
      <!-- Soft distant stacked folder outline in background mist -->
      <g transform="translate(710, 40) rotate(-8)" opacity="0.20" filter="url(#blurMist)">
        <polygon points="0,6 16,0 46,0 52,6 72,6 72,56 0,56" fill="#331207"/>
        <polygon points="6,12 66,12 66,60 6,60" fill="#3d1509"/>
      </g>
    </g>

    <!-- Paragraphenzeichen-Silhouetten (§ Shapes in muted forest greens) -->
    <g id="windshield-par-silhouettes">
      <!-- 1. Upper far-left silhouette above decorative pill -->
      <use href="#par-symbol" transform="translate(165, 32) scale(0.65) rotate(-6)" fill="#45190c" opacity="0.32" filter="url(#blurMist)"/>
      <!-- 2. Upper-left between pill and wordmark -->
      <use href="#par-symbol" transform="translate(315, 48) scale(0.85) rotate(8)" fill="#4a1a0d" opacity="0.38"/>
      <!-- 3. Upper center-left above 'steu' -->
      <use href="#par-symbol" transform="translate(475, 30) scale(0.70) rotate(-10)" fill="#3d150a" opacity="0.28" filter="url(#blurMist)"/>
      <!-- 4. Upper center above wordmark hyphen -->
      <use href="#par-symbol" transform="translate(635, 50) scale(0.95) rotate(12)" fill="#582311" opacity="0.36"/>
      <!-- 5. Upper center-right above 'sist' -->
      <use href="#par-symbol" transform="translate(795, 36) scale(0.75) rotate(-8)" fill="#481a0d" opacity="0.30" filter="url(#blurMist)"/>
      <!-- 6. Right of wordmark towards navi unit -->
      <use href="#par-symbol" transform="translate(945, 58) scale(1.05) rotate(14)" fill="#532012" opacity="0.40"/>
      <!-- 7. Far-right windshield edge near mounting area -->
      <use href="#par-symbol" transform="translate(1075, 92) scale(0.75) rotate(-12)" fill="#3a1409" opacity="0.32" filter="url(#blurMist)"/>
      <!-- 8. Subtle misty background § behind upper wordmark baseline -->
      <use href="#par-symbol" transform="translate(540, 130) scale(0.60) rotate(5)" fill="#381207" opacity="0.22" filter="url(#blurFarMist)"/>
    </g>
  </g>

  <!-- ======================================================= -->
  <!-- 3. LEFT PANEL: BRAND WORDMARK & MANDATORY TAGLINE       -->
  <!-- ======================================================= -->
  <!-- Prominently displayed in driver view over the dark windshield backdrop -->
  <g id="brand-panel">
    <!-- Modern Tech Enclave Decorative Pill (Icons only, no extra text) -->
    <g transform="translate(90, 85)">
      <rect width="180" height="34" rx="17" fill="#062419" stroke="#10b981" stroke-width="1.5" stroke-opacity="0.6"/>
      <circle cx="20" cy="17" r="5" fill="#34d399" filter="url(#glowGreen)"/>
      <circle cx="20" cy="17" r="2.5" fill="#ffffff"/>
      <!-- Compass needle icon -->
      <g transform="translate(50, 17)">
        <polygon points="0,-9 4,0 0,2 -4,0" fill="#38bdf8"/>
        <polygon points="0,9 4,0 0,-2 -4,0" fill="#94a3b8"/>
        <circle cx="0" cy="0" r="1.5" fill="#ffffff"/>
      </g>
      <!-- Shield lock icon -->
      <path d="M 90 11 L 100 14 L 100 21 C 100 25 90 28 90 28 C 90 28 80 25 80 21 L 80 14 Z" 
            fill="none" stroke="#34d399" stroke-width="1.8" stroke-linejoin="round"/>
      <!-- Route line icon -->
      <path d="M 125 21 C 135 11, 145 23, 155 13" fill="none" stroke="#fbbf24" stroke-width="2" stroke-linecap="round"/>
      <circle cx="155" cy="13" r="3" fill="#fbbf24"/>
    </g>

    <!-- Main Project Wordmark (PROMINENT, CLEAN, MAX CONTRAST) -->
    <g transform="translate(90, 225)">
      <text font-family="system-ui, -apple-system, 'Segoe UI', Roboto, Helvetica, Arial, sans-serif" 
            font-size="94" font-weight="800" letter-spacing="-1.5" fill="#ffffff">steuer-assistent</text>
      <!-- Gradient underline accent bar -->
      <rect y="22" width="700" height="6" rx="3" fill="url(#goldAccent)"/>
    </g>

    <!-- Mandatory Tagline (with genuine 'ü', EXACT string from brief) -->
    <text x="90" y="310" font-family="system-ui, -apple-system, 'Segoe UI', Roboto, Helvetica, Arial, sans-serif" 
          font-size="26" font-weight="400" fill="#f1f5f9" letter-spacing="-0.2">
      Lokale Beleg-Arbeitsunterlage für Arbeitnehmer-Werbungskosten.
    </text>
  </g>

  <!-- ======================================================= -->
  <!-- 4. DASHBOARD (ARMATURENBRETT) SPANNING ACROSS CANVAS    -->
  <!-- ======================================================= -->
  <!-- Main Dashboard Body with driver instrument binnacle arch -->
  <g id="dashboard-assembly">
    <!-- Dashboard Top Deck & Body -->
    <path d="M 0 450 C 180 432, 290 412, 440 412 C 590 412, 700 442, 820 472 C 1000 474, 1200 476, 1450 478 C 1800 482, 2100 488, 2400 494 L 2400 680 L 0 680 Z" 
          fill="url(#dashTopGrad)"/>

    <!-- Dashboard Top Bevel Highlight Edge -->
    <path d="M 0 450 C 180 432, 290 412, 440 412 C 590 412, 700 442, 820 472 C 1000 474, 1200 476, 1450 478 C 1800 482, 2100 488, 2400 494" 
          fill="none" stroke="#475569" stroke-width="2"/>

    <!-- Ambient Luxury Cockpit LED Strip (Glowing Emerald Light Pipe) -->
    <path d="M 20 454 C 180 436, 290 416, 440 416 C 590 416, 700 446, 820 476 C 1000 478, 1200 480, 1450 482 C 1800 486, 2100 492, 2380 498" 
          fill="none" stroke="url(#ambientLedGrad)" stroke-width="3" filter="url(#glowGreen)" opacity="0.85"/>

    <!-- Digital Instrument Cluster Binnacle Alcove (Behind Steering Wheel) -->
    <g id="instrument-cluster" transform="translate(440, 445)">
      <!-- Recessed Display Cavity -->
      <path d="M -180 0 C -90 -22, 90 -22, 180 0 L 190 60 L -190 60 Z" fill="#030712"/>
      <!-- Digital Horizon Arc & Gauges (Abstract Graphics, No Text) -->
      <path d="M -150 16 C -80 0, 80 0, 150 16" fill="none" stroke="#10b981" stroke-width="2" opacity="0.5" filter="url(#glowGreen)"/>
      <ellipse cx="-80" cy="24" rx="36" ry="18" fill="none" stroke="#34d399" stroke-width="1.5" stroke-dasharray="3 4" opacity="0.4"/>
      <ellipse cx="80" cy="24" rx="36" ry="18" fill="none" stroke="#38bdf8" stroke-width="1.5" stroke-dasharray="3 4" opacity="0.4"/>
      <circle cx="0" cy="18" r="4" fill="#fbbf24" opacity="0.6"/>
    </g>

    <!-- Lower Dashboard Decorative Leather Stitch & Tier Seam -->
    <path d="M 0 540 C 400 535, 800 545, 1200 548 C 1600 550, 2000 554, 2400 558" 
          fill="none" stroke="#1e293b" stroke-width="2"/>

    <!-- Horizontal Air Vent Louvers under Passenger / Center Deck -->
    <!-- Left Vent Set -->
    <g transform="translate(1240, 560)">
      <rect width="130" height="30" rx="6" fill="#0a0f1d" stroke="#334155" stroke-width="1.5"/>
      <line x1="8" y1="8" x2="122" y2="8" stroke="#475569" stroke-width="2"/>
      <line x1="8" y1="15" x2="122" y2="15" stroke="#64748b" stroke-width="2"/>
      <line x1="8" y1="22" x2="122" y2="22" stroke="#475569" stroke-width="2"/>
    </g>
    <!-- Right Vent Set -->
    <g transform="translate(1990, 560)">
      <rect width="130" height="30" rx="6" fill="#0a0f1d" stroke="#334155" stroke-width="1.5"/>
      <line x1="8" y1="8" x2="122" y2="8" stroke="#475569" stroke-width="2"/>
      <line x1="8" y1="15" x2="122" y2="15" stroke="#64748b" stroke-width="2"/>
      <line x1="8" y1="22" x2="122" y2="22" stroke="#475569" stroke-width="2"/>
    </g>
  </g>

  <!-- ======================================================= -->
  <!-- 5. STEERING WHEEL (LENKRAD) - CUT OFF AT BOTTOM         -->
  <!-- ======================================================= -->
  <g id="steering-wheel-assembly">
    <!-- Drop Shadow behind top half of steering wheel rim -->
    <path d="M 190 680 A 250 250 0 0 1 690 680" fill="none" stroke="#000000" stroke-width="48" opacity="0.75" filter="url(#softShadow)"/>

    <!-- Outer Steering Wheel Rim (Sweeping smoothly into view) -->
    <path d="M 195 680 A 245 245 0 0 1 685 680" fill="none" stroke="url(#steeringWheelRim)" stroke-width="40" stroke-linecap="butt"/>

    <!-- Outer & Inner Rim Contour Highlights -->
    <path d="M 190 680 A 248 248 0 0 1 690 680" fill="none" stroke="#475569" stroke-width="2" opacity="0.8"/>
    <path d="M 235 680 A 205 205 0 0 1 645 680" fill="none" stroke="#1e293b" stroke-width="2.5"/>

    <!-- Ergonomic Thumb Grips (10-and-2 o'clock positions) -->
    <!-- 10 o'clock grip contour -->
    <path d="M 270 548 C 265 530, 275 515, 292 510 C 305 528, 295 545, 270 548 Z" fill="#334155" opacity="0.5"/>
    <!-- 2 o'clock grip contour -->
    <path d="M 610 548 C 615 530, 605 515, 588 510 C 575 528, 585 545, 610 548 Z" fill="#334155" opacity="0.5"/>

    <!-- Sporty 12 o'clock Centering Marker (Emerald Green Racing Stripe) -->
    <g transform="translate(440, 475)">
      <rect x="-8" y="-18" width="16" height="38" rx="4" fill="#10b981" filter="url(#glowGreen)"/>
      <rect x="-6" y="-16" width="12" height="34" rx="3" fill="#34d399"/>
    </g>

    <!-- Steering Wheel Spokes extending towards center hub -->
    <!-- Left Spoke -->
    <path d="M 275 620 L 390 680 L 415 680 L 305 605 Z" fill="url(#steeringSpokeGrad)" stroke="#334155" stroke-width="1.5"/>
    <!-- Right Spoke -->
    <path d="M 605 620 L 490 680 L 465 680 L 575 605 Z" fill="url(#steeringSpokeGrad)" stroke="#334155" stroke-width="1.5"/>

    <!-- Steering Wheel Hub Apex (Center Cap Trim) -->
    <ellipse cx="440" cy="670" rx="65" ry="32" fill="#0f172a" stroke="#475569" stroke-width="2"/>
    <ellipse cx="440" cy="670" rx="52" ry="24" fill="#1e293b" stroke="#334155" stroke-width="1"/>
  </g>

  <!-- ======================================================= -->
  <!-- 6. NAVIGATION DEVICE MOUNTING STAND (STANDFUSS)         -->
  <!-- ======================================================= -->
  <!-- Visible chassis mount firmly attaching the device to the dashboard -->
  <g id="navi-unit-scaled" transform="translate(1480,605) scale(0.55) translate(-1730,-605)">
  <g id="navi-mount-assembly">
    <!-- Contact Cast Shadow on Dashboard Top Surface -->
    <ellipse cx="1730" cy="590" rx="150" ry="22" fill="#000000" opacity="0.85" filter="url(#pedestalShadow)"/>
    <rect x="1200" y="525" width="1060" height="26" rx="13" fill="#000000" opacity="0.65" filter="url(#softShadow)"/>

    <!-- Baseplate (Fußplatte / Sockel) resting on the dashboard -->
    <rect x="1610" y="575" width="240" height="30" rx="8" fill="url(#pedestalMountGrad)" stroke="#475569" stroke-width="2"/>
    <rect x="1620" y="580" width="220" height="20" rx="5" fill="#0f172a" stroke="#334155" stroke-width="1"/>

    <!-- Baseplate Heavy Mounting Hex Bolts -->
    <g fill="#475569" stroke="#1e293b" stroke-width="1">
      <!-- Left Bolts -->
      <circle cx="1635" cy="590" r="4.5"/>
      <circle cx="1635" cy="590" r="2" fill="#94a3b8"/>
      <circle cx="1660" cy="590" r="4.5"/>
      <circle cx="1660" cy="590" r="2" fill="#94a3b8"/>
      <!-- Right Bolts -->
      <circle cx="1800" cy="590" r="4.5"/>
      <circle cx="1800" cy="590" r="2" fill="#94a3b8"/>
      <circle cx="1825" cy="590" r="4.5"/>
      <circle cx="1825" cy="590" r="2" fill="#94a3b8"/>
    </g>

    <!-- Structural Pylon / Pedestal Arm (Standsäule) -->
    <path d="M 1655 580 L 1680 525 L 1780 525 L 1805 580 Z" fill="url(#pedestalArmGrad)" stroke="#475569" stroke-width="2"/>
    <!-- Recessed Center Rib -->
    <path d="M 1685 580 L 1700 525 L 1760 525 L 1775 580 Z" fill="#090e17" stroke="#1e293b" stroke-width="1"/>

    <!-- Swivel Knuckle / Hinge Joint (Gelenk-Scharnier) connecting to bezel -->
    <rect x="1685" y="516" width="90" height="20" rx="7" fill="url(#hingeCylinderGrad)" stroke="#334155" stroke-width="1.5"/>
    <circle cx="1692" cy="526" r="7.5" fill="#64748b" stroke="#1e293b" stroke-width="1.5"/>
    <circle cx="1692" cy="526" r="3" fill="#94a3b8"/>
    <circle cx="1768" cy="526" r="7.5" fill="#64748b" stroke="#1e293b" stroke-width="1.5"/>
    <circle cx="1768" cy="526" r="3" fill="#94a3b8"/>

    <!-- Bezel Clamping Brackets -->
    <path d="M 1675 510 L 1692 530 L 1768 530 L 1785 510 Z" fill="#334155" stroke="#475569" stroke-width="1.5"/>
  </g>

  <!-- ======================================================= -->
  <!-- 7. NAVIGATION UNIT DISPLAY & TAX JUNGLE ROUTE            -->
  <!-- ======================================================= -->
  <g id="navi-display-unit" transform="translate(1140, 50)">
    <!-- Navigation Outer Bezel Chassis (1180 x 480 px) -->
    <rect width="1180" height="480" rx="32" fill="url(#naviBezelGrad)" stroke="#475569" stroke-width="3" filter="url(#softShadow)"/>
    <rect x="5" y="5" width="1170" height="470" rx="28" fill="none" stroke="#09121a" stroke-width="2"/>

    <!-- Corner Metallic Bezel Screws -->
    <circle cx="22" cy="22" r="4.5" fill="#94a3b8" stroke="#334155" stroke-width="1"/>
    <circle cx="1158" cy="22" r="4.5" fill="#94a3b8" stroke="#334155" stroke-width="1"/>
    <circle cx="22" cy="458" r="4.5" fill="#94a3b8" stroke="#334155" stroke-width="1"/>
    <circle cx="1158" cy="458" r="4.5" fill="#94a3b8" stroke="#334155" stroke-width="1"/>

    <!-- Inner Screen Display Bezel -->
    <rect x="18" y="18" width="1144" height="444" rx="22" fill="#020907" stroke="#1e293b" stroke-width="2"/>

    <!-- THE ACTIVE SCREEN GLASS (Map Canvas) -->
    <g transform="translate(24, 24)">
      <clipPath id="screenClipA2">
        <rect width="1132" height="432" rx="18"/>
      </clipPath>

      <g clip-path="url(#screenClipA2)">
        <!-- Screen Map Base Background -->
        <rect width="1132" height="432" fill="url(#screenMapGrad)"/>

        <!-- Topographic Contour Lines across Map Terrain -->
        <g stroke="#10b981" stroke-width="1.5" fill="none" opacity="0.12">
          <path d="M 0 120 C 250 60, 500 200, 800 90 C 950 30, 1050 150, 1140 110"/>
          <path d="M 0 210 C 200 170, 450 300, 750 230 C 920 170, 1020 280, 1140 250"/>
          <path d="M 0 310 C 300 250, 550 390, 850 330 C 1020 290, 1080 370, 1140 340"/>
          <path d="M 0 400 C 200 370, 600 440, 900 390 C 1020 360, 1100 420, 1140 400"/>
        </g>

        <!-- Secondary GPS Coordinate Grid -->
        <g stroke="#34d399" stroke-width="1" stroke-dasharray="4 6" opacity="0.08">
          <line x1="160" y1="0" x2="160" y2="432"/>
          <line x1="350" y1="0" x2="350" y2="432"/>
          <line x1="540" y1="0" x2="540" y2="432"/>
          <line x1="730" y1="0" x2="730" y2="432"/>
          <line x1="920" y1="0" x2="920" y2="432"/>
          <line x1="0" y1="100" x2="1132" y2="100"/>
          <line x1="0" y1="210" x2="1132" y2="210"/>
          <line x1="0" y1="320" x2="1132" y2="320"/>
        </g>

        <!-- Background Jungle Foliage Leaves -->
        <g opacity="0.32">
          <use href="#jungle-frond" x="110" y="270" transform="scale(1.7) rotate(-25 110 270)"/>
          <use href="#jungle-frond" x="260" y="110" transform="scale(1.5) rotate(35 260 110)"/>
          <use href="#jungle-frond" x="450" y="310" transform="scale(1.9) rotate(-15 450 310)"/>
          <use href="#jungle-frond" x="620" y="60" transform="scale(1.6) rotate(45 620 60)"/>
          <use href="#jungle-frond" x="780" y="260" transform="scale(2.0) rotate(-30 780 260)"/>
          <use href="#jungle-frond" x="960" y="120" transform="scale(1.8) rotate(20 960 120)"/>
        </g>

        <!-- =============================================== -->
        <!-- THE TAX JUNGLE: § PARAGRAPHS, FORMS & RECEIPTS  -->
        <!-- =============================================== -->
        <!-- Obstacle Cluster 1 (Left Lower): Giant Mossy § & Receipt Stack -->
        <g transform="translate(100, 240)" filter="url(#paperShadow)">
          <use href="#tax-form-sheet" transform="rotate(-18)"/>
          <use href="#receipt-tear" transform="translate(45, 20) rotate(14)"/>
          <use href="#par-symbol" x="15" y="-30" transform="scale(1.8)" fill="#059669" opacity="0.95"/>
          <use href="#jungle-frond" x="30" y="40" transform="scale(0.8) rotate(-40 30 40)"/>
        </g>

        <!-- Obstacle Cluster 2 (Upper Left): Complex Forms & Amber § -->
        <g transform="translate(220, 20)" filter="url(#paperShadow)">
          <use href="#tax-form-sheet" transform="rotate(12)"/>
          <use href="#tax-form-sheet" transform="translate(30, 15) rotate(-8)"/>
          <use href="#par-symbol" x="70" y="10" transform="scale(1.5)" fill="#d97706" opacity="0.9"/>
          <use href="#jungle-frond" x="110" y="60" transform="scale(0.7) rotate(30 110 60)"/>
        </g>

        <!-- Obstacle Cluster 3 (Mid-Left Canyon): Receipt Forest & Emerald § -->
        <g transform="translate(380, 170)" filter="url(#paperShadow)">
          <use href="#receipt-tear" transform="rotate(-15)"/>
          <use href="#receipt-tear" transform="translate(50, 10) rotate(18)"/>
          <use href="#par-symbol" x="25" y="-15" transform="scale(1.6)" fill="#047857"/>
        </g>

        <!-- Obstacle Cluster 4 (Center Basin): The Golden Paragraph Mountain -->
        <g transform="translate(540, 80)" filter="url(#paperShadow)">
          <use href="#tax-form-sheet" transform="scale(1.1) rotate(6)"/>
          <use href="#par-symbol" x="15" y="-35" transform="scale(2.2)" fill="#fbbf24" filter="url(#glowGreen)"/>
          <use href="#receipt-tear" transform="translate(65, 55) rotate(-22)"/>
          <use href="#jungle-frond" x="75" y="20" transform="scale(1) rotate(60 75 20)"/>
        </g>

        <!-- Obstacle Cluster 5 (Center Lower): Sprawling Folders & Foliage -->
        <g transform="translate(640, 270)" filter="url(#paperShadow)">
          <use href="#tax-form-sheet" transform="rotate(-24)"/>
          <use href="#tax-form-sheet" transform="translate(40, -10) rotate(14)"/>
          <use href="#par-symbol" x="30" y="-10" transform="scale(1.7)" fill="#059669"/>
        </g>

        <!-- Obstacle Cluster 6 (Upper Right): Dense § Thicket -->
        <g transform="translate(810, 30)" filter="url(#paperShadow)">
          <use href="#receipt-tear" transform="rotate(16)"/>
          <use href="#tax-form-sheet" transform="translate(40, 20) rotate(-12)"/>
          <use href="#par-symbol" x="55" y="-20" transform="scale(1.9)" fill="#d97706" opacity="0.95"/>
          <use href="#par-symbol" x="100" y="20" transform="scale(1.4)" fill="#047857"/>
          <use href="#jungle-frond" x="110" y="50" transform="scale(0.9) rotate(-35 110 50)"/>
        </g>

        <!-- Obstacle Cluster 7 (Far Right Edge): Labyrinth Barrier -->
        <g transform="translate(980, 160)" filter="url(#paperShadow)">
          <use href="#tax-form-sheet" transform="rotate(-15)"/>
          <use href="#receipt-tear" transform="translate(30, 40) rotate(20)"/>
          <use href="#par-symbol" x="20" y="-25" transform="scale(1.7)" fill="#059669"/>
        </g>

        <!-- =============================================== -->
        <!-- THE ILLUMINATED STEUER-NAVI OPTIMAL ROUTE       -->
        <!-- =============================================== -->
        <!-- Start: (70, 380) -> (190, 350) -> (330, 310) -> (470, 360) -> (640, 250) -> (760, 280) -> (880, 180) -> Finish: (1020, 110) -->

        <!-- Outer Glowing Halos -->
        <path d="M 70 380 C 140 380, 180 340, 250 330 C 330 320, 370 390, 460 390 C 550 390, 580 260, 660 260 C 720 260, 750 310, 820 270 C 880 230, 920 130, 1020 110" 
              fill="none" stroke="#10b981" stroke-width="26" stroke-linecap="round" stroke-linejoin="round" opacity="0.25" filter="url(#laserGlow)"/>

        <!-- Middle High-Intensity Neon Track -->
        <path d="M 70 380 C 140 380, 180 340, 250 330 C 330 320, 370 390, 460 390 C 550 390, 580 260, 660 260 C 720 260, 750 310, 820 270 C 880 230, 920 130, 1020 110" 
              fill="none" stroke="url(#routeGrad)" stroke-width="12" stroke-linecap="round" stroke-linejoin="round" filter="url(#glowGreen)"/>

        <!-- Core Pulse Guidance Line -->
        <path d="M 70 380 C 140 380, 180 340, 250 330 C 330 320, 370 390, 460 390 C 550 390, 580 260, 660 260 C 720 260, 750 310, 820 270 C 880 230, 920 130, 1020 110" 
              fill="none" stroke="#ffffff" stroke-width="3.5" stroke-linecap="round" stroke-dasharray="14 10"/>

        <!-- Route Guidance Golden Waypoint Coins (€) Along the Optimal Path -->
        <use href="#waypoint-coin" x="180" y="345"/>
        <use href="#waypoint-coin" x="300" y="325"/>
        <use href="#waypoint-coin" x="410" y="375"/>
        <use href="#waypoint-coin" x="510" y="380"/>
        <use href="#waypoint-coin" x="610" y="295"/>
        <use href="#waypoint-coin" x="710" y="260"/>
        <use href="#waypoint-coin" x="800" y="285"/>
        <use href="#waypoint-coin" x="900" y="195"/>

        <!-- START POSITION: High-Tech 3D GPS Navigation Arrow / Chevron -->
        <g transform="translate(70, 380) rotate(-22)" filter="url(#glowGreen)">
          <ellipse cx="0" cy="8" rx="26" ry="12" fill="#000000" opacity="0.5"/>
          <polygon points="0,-30 22,16 0,6 -22,16" fill="#38bdf8" stroke="#ffffff" stroke-width="2.5" stroke-linejoin="round"/>
          <polygon points="0,-30 0,6 -22,16" fill="#0284c7" opacity="0.6"/>
          <circle cx="0" cy="0" r="3" fill="#ffffff"/>
        </g>

        <!-- DESTINATION: TARGET ZONE & TRIUMPHANT GOAL FLAG (Ziel-Fähnchen) -->
        <g transform="translate(1020, 110)">
          <!-- Concentric Target Radar Rings -->
          <circle cx="0" cy="0" r="38" fill="none" stroke="#10b981" stroke-width="2" stroke-dasharray="6 4" opacity="0.6"/>
          <circle cx="0" cy="0" r="26" fill="#10b981" fill-opacity="0.15" stroke="#34d399" stroke-width="2" filter="url(#glowGreen)"/>
          <circle cx="0" cy="0" r="13" fill="#34d399" fill-opacity="0.3"/>
          <circle cx="0" cy="0" r="5" fill="#fbbf24"/>

          <!-- Flagpole Standing in Target Center -->
          <line x1="0" y1="0" x2="0" y2="-80" stroke="#f8fafc" stroke-width="4" stroke-linecap="round"/>
          <!-- Golden Finial Ball -->
          <circle cx="0" cy="-80" r="5.5" fill="#fbbf24" stroke="#78350f" stroke-width="1.5"/>

          <!-- The Ziel-Fähnchen Flag (Waving Emerald & Golden Pennant) -->
          <g filter="url(#softShadow)">
            <path d="M 0 -78 C 22 -87 40 -69 62 -78 L 62 -42 C 40 -33 22 -51 0 -42 Z" 
                  fill="#10b981" stroke="#34d399" stroke-width="2" stroke-linejoin="round"/>
            <!-- Checkered Gold Accents on Flag -->
            <path d="M 0 -78 C 11 -82 21 -78 31 -69 L 31 -42 C 21 -51 11 -47 0 -42 Z" fill="#fbbf24"/>
            <path d="M 31 -69 C 42 -60 51 -69 62 -78 L 62 -42 C 51 -33 42 -42 31 -42 Z" fill="#047857"/>
            <!-- Inner Goal Star Motif on Flag -->
            <polygon points="16,-62 18,-57 23,-57 19,-53 21,-48 16,-51 12,-48 14,-53 9,-57 15,-57" fill="#ffffff"/>
          </g>

          <!-- Triumphant Starburst Sparkles around Flag -->
          <g fill="#fbbf24" opacity="0.85">
            <polygon points="70,-85 73,-81 77,-81 74,-78 75,-74 70,-77 65,-74 66,-78 63,-81 67,-81"/>
            <polygon points="-14,-95 -12,-91 -8,-91 -11,-88 -10,-84 -14,-87 -18,-84 -17,-88 -20,-91 -16,-91"/>
          </g>
        </g>

        <!-- =============================================== -->
        <!-- HIGH-TECH HUD NAVIGATION CONTROLS (NO TEXT)     -->
        <!-- =============================================== -->
        <!-- Top-Left Navigation Widget Card: Next Maneuver Arrow HUD -->
        <g transform="translate(25, 25)" filter="url(#cardShadow)">
          <rect width="90" height="85" rx="14" fill="#041d14" fill-opacity="0.88" stroke="#10b981" stroke-width="1.8"/>
          <!-- Curved Maneuver Arrow: Sharp Turn Right into Clear Path -->
          <path d="M 28 64 L 28 42 C 28 32, 38 24, 50 24 L 64 24" 
                fill="none" stroke="#34d399" stroke-width="5.5" stroke-linecap="round"/>
          <polygon points="60,15 76,24 60,33" fill="#34d399" filter="url(#glowGreen)"/>
          <!-- Distance Scale Indicator Bars below arrow -->
          <rect x="22" y="70" width="46" height="4" rx="2" fill="#10b981"/>
        </g>

        <!-- Top-Right Status Indicators (Satellite Signal, Compass, Offline Mode) -->
        <g transform="translate(960, 25)" filter="url(#cardShadow)">
          <rect width="145" height="38" rx="12" fill="#041d14" fill-opacity="0.88" stroke="#1e293b" stroke-width="1.5"/>
          
          <!-- Satellite Dish / Connectivity Icon -->
          <g transform="translate(18, 19)" stroke="#38bdf8" stroke-width="1.8" fill="none">
            <path d="M -5 3 A 9 9 0 0 1 5 3"/>
            <path d="M -9 7 A 14 14 0 0 1 9 7"/>
            <circle cx="0" cy="0" r="1.8" fill="#38bdf8"/>
          </g>

          <!-- 4 GPS Signal Strength Bars (Full Reception) -->
          <g transform="translate(52, 12)" fill="#10b981">
            <rect x="0" y="14" width="3.5" height="5" rx="1"/>
            <rect x="6" y="10" width="3.5" height="9" rx="1"/>
            <rect x="12" y="6" width="3.5" height="13" rx="1"/>
            <rect x="18" y="0" width="3.5" height="19" rx="1"/>
          </g>

          <!-- Battery / Offline Enclave Shield -->
          <g transform="translate(102, 11)">
            <path d="M 12 2 L 20 5 L 20 12 C 20 17 12 20 12 20 C 12 20 4 17 4 12 L 4 5 Z" 
                  fill="#064e3b" stroke="#34d399" stroke-width="1.6" stroke-linejoin="round"/>
            <circle cx="12" cy="10" r="2.5" fill="#34d399" filter="url(#glowGreen)"/>
          </g>
        </g>

        <!-- Bottom-Left Map Scale Ruler -->
        <g transform="translate(25, 395)">
          <line x1="0" y1="0" x2="70" y2="0" stroke="#94a3b8" stroke-width="2"/>
          <line x1="0" y1="-5" x2="0" y2="5" stroke="#94a3b8" stroke-width="2"/>
          <line x1="35" y1="-3" x2="35" y2="3" stroke="#94a3b8" stroke-width="1.2"/>
          <line x1="70" y1="-5" x2="70" y2="5" stroke="#94a3b8" stroke-width="2"/>
        </g>

        <!-- Bottom-Right Compass Rose HUD -->
        <g transform="translate(1075, 385)">
          <circle cx="0" cy="0" r="22" fill="#041d14" fill-opacity="0.8" stroke="#164d38" stroke-width="1.5"/>
          <polygon points="0,-16 4.5,-2 0,0 -4.5,-2" fill="#38bdf8"/>
          <polygon points="0,16 4.5,2 0,0 -4.5,2" fill="#64748b"/>
          <circle cx="0" cy="0" r="2.5" fill="#ffffff"/>
        </g>

        <!-- Glass Screen Angle Reflection Highlight -->
        <path d="M 0 0 L 650 0 L 320 432 L 0 432 Z" fill="url(#glassReflection)" pointer-events="none"/>
      </g>
    </g>
  </g>
  </g>
</svg>
